<svg xmlns="http://www.w3.org/2000/svg" width="600" height="400" viewBox="0 0 600 400"><defs><linearGradient id="bgGradient" x1="0%" x2="100%" y1="0%" y2="100%"><stop offset="0%" stop-color="#f8fafc"/><stop offset="100%" stop-color="#f1f5f9"/></linearGradient><linearGradient id="clientGradient" x1="0%" x2="100%" y1="0%" y2="100%"><stop offset="0%" stop-color="#4f46e5"/><stop offset="100%" stop-color="#4338ca"/></linearGradient><linearGradient id="apiGradient" x1="0%" x2="100%" y1="0%" y2="100%"><stop offset="0%" stop-color="#8b5cf6"/><stop offset="100%" stop-color="#7c3aed"/></linearGradient><linearGradient id="coreGradient" x1="0%" x2="100%" y1="0%" y2="100%"><stop offset="0%" stop-color="#10b981"/><stop offset="100%" stop-color="#059669"/></linearGradient><linearGradient id="dataGradient" x1="0%" x2="100%" y1="0%" y2="100%"><stop offset="0%" stop-color="#f59e0b"/><stop offset="100%" stop-color="#d97706"/></linearGradient><linearGradient id="externalGradient" x1="0%" x2="100%" y1="0%" y2="100%"><stop offset="0%" stop-color="#ec4899"/><stop offset="100%" stop-color="#db2777"/></linearGradient><filter id="shadow" width="140%" height="140%" x="-20%" y="-20%"><feDropShadow dx="0" dy="3" flood-opacity=".2" stdDeviation="4"/></filter></defs><rect width="600" height="400" fill="url(#bgGradient)" rx="15"/><text x="300" y="40" fill="#1e293b" font-family="Arial, sans-serif" font-size="24" font-weight="bold" text-anchor="middle">BloxAPI Architecture</text><rect width="300" height="50" x="150" y="70" fill="url(#clientGradient)" filter="url(#shadow)" rx="8"/><text x="300" y="100" fill="#fff" font-family="Arial, sans-serif" font-size="16" font-weight="bold" text-anchor="middle">Client Applications</text><rect width="300" height="50" x="150" y="140" fill="url(#apiGradient)" filter="url(#shadow)" rx="8"/><text x="300" y="170" fill="#fff" font-family="Arial, sans-serif" font-size="16" font-weight="bold" text-anchor="middle">API Gateway &amp; Rate Limiting</text><rect width="150" height="100" x="50" y="210" fill="url(#coreGradient)" filter="url(#shadow)" rx="8"/><text x="125" y="240" fill="#fff" font-family="Arial, sans-serif" font-size="16" font-weight="bold" text-anchor="middle">Core Services</text><text x="125" y="265" fill="#fff" font-family="Arial, sans-serif" font-size="12" text-anchor="middle">Authentication</text><text x="125" y="285" fill="#fff" font-family="Arial, sans-serif" font-size="12" text-anchor="middle">Error Handling</text><text x="125" y="305" fill="#fff" font-family="Arial, sans-serif" font-size="12" text-anchor="middle">Request Validation</text><rect width="150" height="100" x="225" y="210" fill="url(#dataGradient)" filter="url(#shadow)" rx="8"/><text x="300" y="240" fill="#fff" font-family="Arial, sans-serif" font-size="16" font-weight="bold" text-anchor="middle">Data Processing</text><text x="300" y="265" fill="#fff" font-family="Arial, sans-serif" font-size="12" text-anchor="middle">Analytics</text><text x="300" y="285" fill="#fff" font-family="Arial, sans-serif" font-size="12" text-anchor="middle">Caching</text><text x="300" y="305" fill="#fff" font-family="Arial, sans-serif" font-size="12" text-anchor="middle">Transformations</text><rect width="150" height="100" x="400" y="210" fill="url(#externalGradient)" filter="url(#shadow)" rx="8"/><text x="475" y="240" fill="#fff" font-family="Arial, sans-serif" font-size="16" font-weight="bold" text-anchor="middle">Integrations</text><text x="475" y="265" fill="#fff" font-family="Arial, sans-serif" font-size="12" text-anchor="middle">Roblox API</text><text x="475" y="285" fill="#fff" font-family="Arial, sans-serif" font-size="12" text-anchor="middle">Third-party Services</text><text x="475" y="305" fill="#fff" font-family="Arial, sans-serif" font-size="12" text-anchor="middle">Webhooks</text><rect width="300" height="50" x="150" y="330" fill="#1e293b" filter="url(#shadow)" rx="8"/><text x="300" y="360" fill="#fff" font-family="Arial, sans-serif" font-size="16" font-weight="bold" text-anchor="middle">Data Storage &amp; Persistence</text><line x1="300" x2="300" y1="120" y2="140" stroke="#9ca3af" stroke-dasharray="5 3" stroke-width="2"/><line x1="300" x2="300" y1="190" y2="210" stroke="#9ca3af" stroke-dasharray="5 3" stroke-width="2"/><line x1="125" x2="125" y1="310" y2="330" stroke="#9ca3af" stroke-dasharray="5 3" stroke-width="2"/><line x1="125" x2="150" y1="330" y2="330" stroke="#9ca3af" stroke-dasharray="5 3" stroke-width="2"/><line x1="300" x2="300" y1="310" y2="330" stroke="#9ca3af" stroke-dasharray="5 3" stroke-width="2"/><line x1="475" x2="475" y1="310" y2="330" stroke="#9ca3af" stroke-dasharray="5 3" stroke-width="2"/><line x1="475" x2="450" y1="330" y2="330" stroke="#9ca3af" stroke-dasharray="5 3" stroke-width="2"/></svg>